<svg width="21" height="8" viewBox="0 0 21 8" fill="none" xmlns="http://www.w3.org/2000/svg">
<path d="M10.4999 0.470703C6.90569 0.470703 3.52727 1.22607 1.84221 2.91113C1.07854 3.6748 0.696702 4.59619 0.746507 5.7085C0.77971 6.38086 0.98723 6.97852 1.37737 7.36865C1.66789 7.66748 2.07463 7.8335 2.54778 7.75879L5.62737 7.23584C6.09221 7.16113 6.41594 7.02002 6.62346 6.8042C6.89739 6.53857 6.98039 6.14014 6.98039 5.61719V4.77881C6.98039 4.646 7.0385 4.54639 7.12151 4.46338C7.20451 4.36377 7.32903 4.32227 7.42034 4.29736C7.98479 4.16455 9.1303 4.04004 10.4999 4.04004C11.8696 4.04004 13.0068 4.13965 13.5795 4.30566C13.6625 4.33057 13.7787 4.38037 13.87 4.46338C13.9447 4.54639 13.9946 4.6377 14.0029 4.77051L14.0112 5.61719C14.0195 6.14014 14.1025 6.53857 14.3681 6.8042C14.5839 7.02002 14.9076 7.16113 15.3725 7.23584L18.4106 7.75049C18.9003 7.8335 19.3154 7.65918 19.6391 7.34375C20.0292 6.96191 20.245 6.37256 20.2616 5.7002C20.2865 4.57959 19.8549 3.6582 19.1078 2.91113C17.4228 1.22607 14.0942 0.470703 10.4999 0.470703Z" fill="white"/>
</svg>
